<?xml version="1.0" encoding="UTF-8" standalone="no"?>
<!DOCTYPE svg PUBLIC "-//W3C//DTD SVG 1.1//EN" "http://www.w3.org/Graphics/SVG/1.1/DTD/svg11.dtd">
<svg width="100%" height="100%" viewBox="0 0 729 734" version="1.1" xmlns="http://www.w3.org/2000/svg" xmlns:xlink="http://www.w3.org/1999/xlink" xml:space="preserve" xmlns:serif="http://www.serif.com/" style="fill-rule:evenodd;clip-rule:evenodd;stroke-linejoin:round;stroke-miterlimit:2;">
    <g transform="matrix(1,0,0,1,-875.792705,-1151.122306)">
        <g transform="matrix(1,0,0,1,326.322251,118.008436)">
            <path d="M858.689,1068.58C869.252,1046.817 890.559,1033.114 913.835,1033.114C937.111,1033.114 958.419,1046.817 968.981,1068.58L1048.258,1231.922C1048.762,1232.96 1049.493,1233.859 1050.391,1234.543C1051.29,1235.228 1052.33,1235.68 1053.426,1235.862L1225.981,1264.496C1248.972,1268.312 1267.977,1285.339 1275.17,1308.566C1282.363,1331.793 1276.526,1357.29 1260.063,1374.555L1136.505,1504.141C1135.719,1504.964 1135.131,1505.971 1134.788,1507.079C1134.445,1508.187 1134.357,1509.365 1134.531,1510.515L1161.898,1691.555C1165.544,1715.675 1155.983,1739.903 1137.152,1754.258C1118.322,1768.613 1093.407,1770.667 1072.67,1759.575L917.029,1676.321C916.04,1675.792 914.946,1675.516 913.835,1675.516C912.725,1675.516 911.63,1675.792 910.641,1676.321L755,1759.575C734.264,1770.667 709.349,1768.613 690.518,1754.258C671.687,1739.903 662.126,1715.675 665.772,1691.555L693.14,1510.515C693.314,1509.365 693.226,1508.187 692.883,1507.079C692.539,1505.971 691.951,1504.964 691.166,1504.141L567.607,1374.555C551.145,1357.29 545.308,1331.793 552.501,1308.566C559.693,1285.339 578.699,1268.312 601.689,1264.496L774.244,1235.862C775.341,1235.68 776.381,1235.228 777.279,1234.543C778.177,1233.859 778.908,1232.96 779.412,1231.922L858.689,1068.58Z" style="fill:rgb(235,235,235);"/>
        </g>
    </g>
</svg>
